<svg width="23" height="20" viewBox="0 0 23 20" fill="none" xmlns="http://www.w3.org/2000/svg">
<g clip-path="url(#clip0_42_127)">
<path d="M5.04823 2.3501C4.96668 2.26019 4.86374 2.18617 4.74626 2.13298C4.62877 2.07978 4.49943 2.04862 4.36682 2.04157C4.2342 2.03451 4.10135 2.05172 3.9771 2.09206C3.85284 2.13239 3.74002 2.19493 3.64612 2.27551L2.21777 3.50099C1.55056 4.07407 1.30468 4.88514 1.59615 5.59675C2.80588 8.54216 4.77374 11.2163 7.35376 13.4209C9.92579 15.6323 13.0456 17.319 16.4819 18.356C17.3121 18.6058 18.2584 18.3951 18.927 17.8232L20.3553 16.5989C20.4493 16.5184 20.5223 16.4217 20.5694 16.3152C20.6164 16.2087 20.6365 16.0948 20.6283 15.9811C20.62 15.8675 20.5837 15.7566 20.5216 15.6559C20.4596 15.5552 20.3732 15.467 20.2683 15.3971L17.0815 13.2729C16.9694 13.1984 16.839 13.1467 16.7002 13.1217C16.5615 13.0966 16.4178 13.099 16.2803 13.1284L13.255 13.7761C12.8512 13.8626 12.4282 13.858 12.027 13.7628C11.6259 13.6676 11.2604 13.4849 10.9661 13.2326L7.5734 10.3234C7.27884 10.0713 7.0655 9.75804 6.95414 9.41422C6.84278 9.07039 6.83721 8.70771 6.93796 8.36149L7.69496 5.76843C7.72936 5.6505 7.73207 5.5274 7.70288 5.40844C7.67368 5.28948 7.61335 5.17775 7.52643 5.08169L5.04823 2.3501ZM2.60318 1.38274C2.84491 1.17547 3.13532 1.01466 3.45513 0.91097C3.77494 0.807285 4.11682 0.763102 4.45807 0.781355C4.79933 0.799609 5.13215 0.879881 5.43443 1.01684C5.73672 1.1538 6.00155 1.34432 6.21135 1.57574L8.68955 4.30614C9.14403 4.80699 9.30427 5.4594 9.12469 6.0751L8.36907 8.66815C8.33 8.80246 8.33212 8.94314 8.3752 9.07654C8.41828 9.20994 8.50088 9.33153 8.61496 9.42949L12.009 12.3387C12.1234 12.4367 12.2655 12.5076 12.4214 12.5445C12.5773 12.5815 12.7417 12.5831 12.8986 12.5494L15.9225 11.9018C16.277 11.8258 16.647 11.8199 17.0045 11.8845C17.362 11.9491 17.6977 12.0826 17.9863 12.2747L21.1717 14.3989C22.3169 15.1626 22.4219 16.6131 21.3969 17.4905L19.9685 18.7148C18.9463 19.5909 17.4185 19.9758 15.9943 19.546C12.3491 18.4466 9.03942 16.6579 6.31081 14.3125C3.57469 11.974 1.48786 9.13758 0.205095 6.01353C-0.294966 4.79397 0.153984 3.48323 1.17621 2.60704L2.60456 1.38274H2.60318Z" fill="#DBDBDB"/>
</g>
<defs>
<clipPath id="clip0_42_127">
<rect width="22.1021" height="18.9447" fill="white" transform="translate(0 0.777344)"/>
</clipPath>
</defs>
</svg>
