<svg width="23" height="21" viewBox="0 0 23 21" fill="none" xmlns="http://www.w3.org/2000/svg">
<path d="M19.3398 4.42627L2.76322 4.42627C2.39685 4.42627 2.04549 4.55795 1.78643 4.79233C1.52737 5.02672 1.38184 5.34462 1.38184 5.67609L1.38184 15.6747C1.38184 16.0062 1.52737 16.324 1.78643 16.5584C2.04549 16.7928 2.39685 16.9245 2.76322 16.9245H19.3398C19.7062 16.9245 20.0575 16.7928 20.3166 16.5584C20.5757 16.324 20.7212 16.0062 20.7212 15.6747V5.67609C20.7212 5.34462 20.5757 5.02672 20.3166 4.79233C20.0575 4.55795 19.7062 4.42627 19.3398 4.42627ZM17.8203 5.67609L11.0515 9.91299L4.28274 5.67609L17.8203 5.67609ZM2.76322 15.6747L2.76322 6.24476L10.6578 11.1878C10.7734 11.2604 10.9108 11.2993 11.0515 11.2993C11.1922 11.2993 11.3296 11.2604 11.4452 11.1878L19.3398 6.24476V15.6747L2.76322 15.6747Z" fill="#DBDBDB"/>
</svg>
