<svg width="44" height="45" viewBox="0 0 44 45" fill="none" xmlns="http://www.w3.org/2000/svg">
<ellipse cx="22.0084" cy="22.6382" rx="21.9495" ry="21.9507" fill="white"/>
<path d="M31.7495 18.3149C31.7383 17.4753 31.5808 16.644 31.284 15.8582C31.0266 15.1954 30.6336 14.5935 30.1299 14.0909C29.6262 13.5883 29.023 13.196 28.3589 12.9392C27.5816 12.648 26.7604 12.4906 25.9303 12.4736C24.8616 12.4259 24.5227 12.4126 21.8098 12.4126C19.0968 12.4126 18.7491 12.4126 17.6881 12.4736C16.8584 12.4907 16.0376 12.6481 15.2607 12.9392C14.5964 13.1958 13.9931 13.588 13.4894 14.0906C12.9857 14.5933 12.5927 15.1953 12.3356 15.8582C12.0432 16.6333 11.8858 17.4525 11.8701 18.2805C11.8223 19.3481 11.8079 19.6863 11.8079 22.3935C11.8079 25.1008 11.8079 25.4467 11.8701 26.5065C11.8867 27.3358 12.0434 28.1539 12.3356 28.9311C12.5932 29.5938 12.9865 30.1955 13.4903 30.698C13.9942 31.2004 14.5975 31.5924 15.2618 31.849C16.0366 32.1518 16.8576 32.3206 17.6893 32.3479C18.7591 32.3955 19.0979 32.4099 21.8109 32.4099C24.5238 32.4099 24.8716 32.4099 25.9325 32.3479C26.7626 32.3315 27.5838 32.1745 28.3611 31.8833C29.0251 31.6262 29.6281 31.2339 30.1318 30.7313C30.6354 30.2287 31.0286 29.627 31.2862 28.9643C31.5784 28.1883 31.735 27.3701 31.7517 26.5398C31.7995 25.4733 31.8139 25.1352 31.8139 22.4268C31.8117 19.7195 31.8117 19.3759 31.7495 18.3149ZM21.8031 27.5131C18.9657 27.5131 16.6672 25.2194 16.6672 22.388C16.6672 19.5566 18.9657 17.2628 21.8031 17.2628C23.1652 17.2628 24.4716 17.8028 25.4348 18.7639C26.3979 19.7251 26.9391 21.0287 26.9391 22.388C26.9391 23.7473 26.3979 25.0509 25.4348 26.012C24.4716 26.9732 23.1652 27.5131 21.8031 27.5131ZM27.1435 18.2683C26.9862 18.2685 26.8304 18.2377 26.685 18.1777C26.5396 18.1177 26.4075 18.0296 26.2963 17.9186C26.1851 17.8076 26.0969 17.6758 26.0367 17.5308C25.9766 17.3857 25.9457 17.2302 25.9459 17.0732C25.9459 16.9164 25.9768 16.761 26.037 16.6161C26.0971 16.4712 26.1853 16.3395 26.2965 16.2286C26.4076 16.1177 26.5396 16.0297 26.6848 15.9696C26.8301 15.9096 26.9857 15.8787 27.1429 15.8787C27.3001 15.8787 27.4558 15.9096 27.601 15.9696C27.7462 16.0297 27.8782 16.1177 27.9894 16.2286C28.1005 16.3395 28.1887 16.4712 28.2488 16.6161C28.309 16.761 28.34 16.9164 28.34 17.0732C28.34 17.734 27.8045 18.2683 27.1435 18.2683Z" fill="black"/>
<path d="M21.8032 25.7165C23.6458 25.7165 25.1394 24.226 25.1394 22.3873C25.1394 20.5486 23.6458 19.0581 21.8032 19.0581C19.9607 19.0581 18.467 20.5486 18.467 22.3873C18.467 24.226 19.9607 25.7165 21.8032 25.7165Z" fill="black"/>
</svg>
