<svg width="45" height="45" viewBox="0 0 45 45" fill="none" xmlns="http://www.w3.org/2000/svg">
<ellipse cx="22.3221" cy="22.6382" rx="21.9495" ry="21.9507" fill="white"/>
<path d="M14.3277 14.9797C15.6702 14.9797 16.7585 13.8937 16.7585 12.5541C16.7585 11.2144 15.6702 10.1284 14.3277 10.1284C12.9853 10.1284 11.897 11.2144 11.897 12.5541C11.897 13.8937 12.9853 14.9797 14.3277 14.9797Z" fill="black"/>
<path d="M19.0535 16.8189V30.2765H23.2406V23.6214C23.2406 21.8654 23.5717 20.1647 25.7536 20.1647C27.9055 20.1647 27.9322 22.1725 27.9322 23.7323V30.2776H32.1216V22.8975C32.1216 19.2723 31.3395 16.4863 27.0934 16.4863C25.0548 16.4863 23.6884 17.6027 23.1295 18.6592H23.0729V16.8189H19.0535ZM12.23 16.8189H16.4238V30.2765H12.23V16.8189Z" fill="black"/>
</svg>
