<svg xmlns="http://www.w3.org/2000/svg" width="46" height="46" viewBox="0 0 46 46" fill="none">
<path fill-rule="evenodd" clip-rule="evenodd" d="M27.8251 36.954C34.8851 32.42 38.8072 27.1428 39.5914 21.1225C40.8124 11.7502 32.431 7.16272 28.1842 11.2845C23.9374 15.4063 26.4831 20.6381 29.5582 22.0681C32.6333 23.4983 34.5138 23.0002 34.1858 24.9113C33.8577 26.8223 29.4828 32.1208 25.6392 34.5884C25.3842 34.8053 25.2872 35.226 25.5327 35.5452C25.6943 35.7552 26.0111 36.1669 26.4831 36.7804C26.8959 37.3169 27.2913 37.2968 27.8251 36.954Z" fill="white" fill-opacity="0.4"/>
<path fill-rule="evenodd" clip-rule="evenodd" d="M9.2385 36.954C16.2983 32.42 20.2205 27.1428 21.0048 21.1225C22.2257 11.7502 13.8442 7.16272 9.59747 11.2845C5.35069 15.4063 7.89638 20.6381 10.9715 22.0681C14.0466 23.4983 15.9272 23.0002 15.5991 24.9113C15.271 26.8223 10.8961 32.1208 7.05253 34.5884C6.79753 34.8053 6.7005 35.226 6.94612 35.5452C7.10756 35.7552 7.42434 36.1669 7.89637 36.7804C8.30915 37.3169 8.70459 37.2968 9.2385 36.954Z" fill="white" fill-opacity="0.4"/>
</svg>