<svg width="45" height="45" viewBox="0 0 45 45" fill="none" xmlns="http://www.w3.org/2000/svg">
<ellipse cx="22.6358" cy="22.6382" rx="21.9495" ry="21.9507" fill="white"/>
<path d="M30.0084 19.0999C29.4218 19.3659 28.8352 19.5256 28.142 19.632C28.7819 19.2063 29.3152 18.6209 29.5818 17.8759C28.9419 18.2484 28.2486 18.5145 27.5554 18.6741C26.9688 18.0356 26.1156 17.6631 25.2091 17.6631C23.4493 17.6631 21.9562 19.0999 21.9562 20.9091C21.9562 21.1752 22.0095 21.3881 22.0628 21.6541C19.3966 21.5477 16.9969 20.2174 15.3971 18.3017C15.1305 18.6741 14.9705 19.2063 14.9705 19.7916C14.9705 20.9091 15.5571 21.9202 16.4103 22.4523C15.8771 22.4523 15.3971 22.2927 14.9705 22.0266V22.0798C14.9705 23.623 16.0904 24.9534 17.5835 25.2195C17.3168 25.2727 17.0502 25.3259 16.7303 25.3259C16.517 25.3259 16.3037 25.3259 16.1437 25.2727C16.5703 26.5498 17.7435 27.5077 19.1833 27.5077C18.0634 28.3591 16.6769 28.8912 15.1838 28.8912C14.9172 28.8912 14.6506 28.8912 14.4373 28.838C15.7171 29.8491 17.4235 30.3812 19.2366 30.3812C25.1557 30.3812 28.4086 25.4855 28.4086 21.2284V20.8027C29.0485 20.3238 29.5818 19.7916 30.0084 19.0999Z" fill="black"/>
</svg>
